<svg width="213" height="104" viewBox="0 0 213 104" fill="none" xmlns="http://www.w3.org/2000/svg">
<path d="M107.651 25.8814C107.651 23.8114 109.381 22.1914 111.571 22.1914C113.761 22.1914 115.381 23.8114 115.381 25.8814V57.6014C115.381 70.8614 107.421 80.6714 92.7712 80.6714C78.1212 80.6714 70.2812 70.8714 70.2812 57.6014V25.8814C70.2812 23.8114 71.9012 22.1914 74.0912 22.1914C76.1612 22.1914 77.8913 23.8114 77.8913 25.8814V57.8314C77.8913 67.0614 83.2012 73.6314 92.7712 73.6314C102.341 73.6314 107.651 67.0614 107.651 57.8314V25.8814Z" fill="#005A87"/>
<path d="M129.77 25.1483C130.03 9.05831 138.33 -0.281691 151.57 -0.00169136C154.45 0.0583086 156.53 0.338309 157.45 0.578309C159.64 1.15831 160.45 2.64831 160.45 4.03831C160.45 6.45831 158.95 7.49831 157.11 7.49831C155.5 7.49831 154.23 7.15831 151.81 7.15831C141.89 7.15831 137.97 13.0383 137.51 23.8883H150.54C152.61 23.8883 154 25.3883 154 27.4583C154 29.5283 152.61 31.0383 150.54 31.0383H137.51V77.0583C137.51 79.2483 135.89 80.7483 133.7 80.7483C131.39 80.7483 129.78 79.2483 129.78 77.0583V25.1483H129.77Z" fill="#005A87"/>
<path d="M184.529 80.7387L163.379 28.0987C163.029 27.4087 162.899 26.4887 162.899 25.9087C162.879 23.9487 164.709 22.3187 167.019 22.2887C168.739 22.2787 169.789 23.1887 170.379 24.6787L188.009 71.5886L205.439 24.3487C205.999 22.9587 206.919 21.9087 208.529 21.8987C210.599 21.8787 212.349 23.2487 212.369 25.4387C212.369 26.1287 212.039 27.1687 211.809 27.6387L189.189 86.8087C184.459 98.7287 180.359 103.729 169.399 103.839C166.059 103.869 164.659 102.729 164.639 100.429C164.619 98.2387 165.759 96.8387 168.529 96.8187C177.639 96.7287 180.019 92.2087 182.499 86.0787L184.519 80.7487L184.529 80.7387Z" fill="#005A87"/>
<path d="M61.2895 51.7281C61.2495 49.7181 59.6795 48.1681 57.5495 48.1581C55.4095 48.1581 53.7295 49.7081 53.6895 51.7281H53.6695V52.0381C53.6695 55.1981 53.0595 58.2181 51.8395 61.0081C50.6195 63.8081 48.9595 66.2781 46.8995 68.3381C44.8395 70.3981 42.3695 72.0581 39.5695 73.2781C36.7795 74.4881 33.7595 75.0981 30.5995 75.0981C30.0695 75.0981 29.6095 75.0781 29.1795 75.0481C28.7395 75.0081 28.2495 74.9581 27.7195 74.8781C24.9295 74.5081 22.2795 73.6581 19.8595 72.3281C17.4195 70.9981 15.2795 69.2981 13.4795 67.2781C11.6695 65.2581 10.2395 62.9181 9.20953 60.3381C8.17953 57.7781 7.65953 54.9781 7.65953 52.0381C7.65953 48.8781 8.27953 45.8781 9.48953 43.1281C10.7095 40.3581 12.3695 37.8881 14.4395 35.7881C16.4895 33.6881 18.9395 32.0181 21.6995 30.7981C24.4495 29.5881 27.4495 28.9781 30.6095 28.9781C33.7695 28.9781 36.7695 29.5681 39.5195 30.7481C41.8995 31.7581 44.0695 33.1481 45.9895 34.8781L31.7395 49.2281L31.7095 49.2681C30.5495 50.9681 30.9395 53.1881 32.7095 54.4481C34.4695 55.6981 36.7295 55.3881 37.9495 53.7481H37.9595L55.2895 36.3781C56.1295 35.5381 56.1195 34.1881 55.2895 33.3481L52.2995 30.3481C49.4695 27.5181 46.1495 25.2881 42.4395 23.7081C38.7095 22.1281 34.7295 21.3281 30.6095 21.3281C26.4895 21.3281 22.5195 22.1281 18.8395 23.7081C15.1695 25.2781 11.8395 27.5081 8.90953 30.3581C6.08953 33.2581 3.87953 36.5981 2.33953 40.2781C0.799531 43.9581 0.0195312 47.9181 0.0195312 52.0381C0.0195312 55.8481 0.719531 59.5381 2.08953 63.0181C3.45953 66.4881 5.35953 69.6181 7.74953 72.3281C10.1395 75.0381 12.9795 77.3081 16.2095 79.0881C19.4495 80.8681 23.0195 82.0181 26.8295 82.5081C27.4795 82.5881 28.0995 82.6481 28.7095 82.6881C29.3295 82.7281 29.9595 82.7481 30.6095 82.7481C34.7295 82.7481 38.7095 81.9681 42.4295 80.4381C46.1495 78.8981 49.4795 76.6381 52.2995 73.7381C55.2095 70.8281 57.4595 67.4881 58.9995 63.8081C60.5395 60.1181 61.3195 56.1681 61.3195 52.0481V51.7381H61.2995L61.2895 51.7281Z" fill="#005A87"/>
</svg>
